# xmcd CD database file
#
# Track frame offsets:
#        150
#        12306
#        27530
#        41409
#        54944
#        64935
#        80151
#        92086
#        103712
#        117673
#        127905
#        147275
#        157771
#        170030
#
# Disc length: 2418 seconds
#
# Revision: 0
# Processed by: cddbd v1.5.2PL0 Copyright (c) Steve Scherf et al.
# Submitted via: CUERipper 2.1.5
#
DISCID=bc09700e
DTITLE=The Jelly Roll Men - Jelly Roll Shuffle
DYEAR=2017
DGENRE=Blues
TTITLE0=Date Bait
TTITLE1=36-24-38
TTITLE2=Have A Good Time
TTITLE3=I'm Tired
TTITLE4=Pontiac Blues
TTITLE5=I'm Gonna Cut Your Head
TTITLE6=Come Back Home To Me
TTITLE7=Rockin'
TTITLE8=Murder My Baby
TTITLE9=Keep Your Hands Out Of My Pocket 
TTITLE10=Shakey's Boogie
TTITLE11=Mister Homewrecker
TTITLE12=Move To Kansas City
TTITLE13=Evalina
EXTD=
EXTT0=
EXTT1=
EXTT2=
EXTT3=
EXTT4=
EXTT5=
EXTT6=
EXTT7=
EXTT8=
EXTT9=
EXTT10=
EXTT11=
EXTT12=
EXTT13=
PLAYORDER=
